<svg width="504" height="504" viewBox="0 0 504 504" fill="none" xmlns="http://www.w3.org/2000/svg">
<g clip-path="url(#clip0_676_251)">
<path d="M469.361 71.6892C437.29 36.0082 399.335 17.1572 359.6 17.1572C315.291 17.1572 275.33 44.1672 251.946 88.7952C228.612 44.1672 188.953 17.1572 145.089 17.1572C105.346 17.1572 68.4401 35.4882 35.3701 71.6392C-3.39195 114.042 -25.2729 210.34 50.8891 282.356C86.0321 315.577 244.668 482.43 246.263 484.109C247.849 485.771 250.048 486.719 252.34 486.719H252.348C254.639 486.719 256.83 485.779 258.416 484.125C260.019 482.446 419.083 315.962 453.874 282.288C528.576 209.962 507.274 113.866 469.361 71.6892Z" fill="#FF453A"/>
</g>
<defs>
<clipPath id="clip0_676_251">
<rect width="503.876" height="503.876" fill="white"/>
</clipPath>
</defs>
</svg>
