<svg width="632" height="869" viewBox="0 0 632 869" fill="none" xmlns="http://www.w3.org/2000/svg">
<path d="M165.728 532.24C165.328 543.31 165.688 550.2 166.228 554.74C166.518 557.18 167.378 563.33 165.828 571.1C165.788 571.3 165.758 571.46 165.728 571.57C173.318 571.88 177.958 574.24 180.728 576.24C185.918 579.97 186.708 583.95 192.228 588.74C196.948 592.84 201.948 594.77 205.228 595.74C210.115 598.407 213.782 600.407 216.228 601.74C215.668 606.06 214.418 612.91 211.228 620.74C207.118 630.83 203.028 634.61 198.228 644.74C195.968 649.51 192.978 656.89 190.978 666.81C189.768 668.26 187.968 670.6 186.228 673.74C184.048 677.66 184.238 678.71 182.228 681.74C180.868 683.79 178.458 687.33 174.228 688.74C173.468 688.99 170.278 690.05 169.228 688.74C168.368 687.67 169.098 685.2 171.228 682.74C172.228 679.41 173.228 676.07 174.228 672.74C173.888 675.3 172.288 685.55 166.228 687.74C166.018 687.82 163.118 688.83 162.228 687.74C161.078 686.33 163.998 682.3 163.228 681.74C162.808 681.44 161.988 682.61 160.228 682.74C159.958 682.76 158.128 682.87 157.228 681.74C156.288 680.56 156.918 678.68 157.228 677.74C158.048 675.27 159.568 674.49 159.228 673.74C158.718 672.61 155.138 674.06 154.228 672.74C153.308 671.42 156.458 669.29 157.228 664.74C157.828 661.2 156.268 660.48 157.228 657.74C158.168 655.05 159.938 654.96 162.228 651.74C163.878 649.42 163.918 648.12 165.228 644.74C166.008 642.72 167.948 637.71 171.228 633.74C176.048 627.9 180.048 628.79 182.228 623.74C183.218 621.43 184.048 617.39 182.228 615.74C180.018 613.74 175.818 617.01 166.228 618.74C158.978 620.05 159.278 618.56 155.228 619.74C144.358 622.91 143.548 633.24 136.228 633.74C130.308 634.15 124.578 627.82 122.228 622.74C119.078 615.94 122.558 612.63 121.228 602.74C119.918 593 115.868 591.16 112.228 580.74C110.208 574.97 108.138 566.06 109.228 553.74C111.588 555.34 122.868 562.64 137.228 559.74C150.728 557.02 161.718 546.34 165.728 532.24Z" fill="#BF2B52" stroke="#22003A" stroke-width="3" stroke-miterlimit="10"/>
<path d="M240.229 543.74C243.229 553.56 247.609 567.47 253.229 584.12C263.649 614.96 266.689 620.6 271.229 625.74C276.369 631.56 289.529 643.65 318.979 645.75C319.409 645.7 319.829 645.7 320.229 645.74C327.949 646.48 331.979 662.31 332.679 665.19L344.229 612.74C339.639 609.16 332.359 602.92 325.229 593.74C302.779 564.84 303.899 535.35 291.229 533.74C284.109 532.83 282.029 541.93 268.229 545.74C257.539 548.69 247.419 546.37 240.229 543.74Z" fill="#BF2B52" stroke="#22003A" stroke-width="3" stroke-miterlimit="10"/>
<path d="M121.229 508.74L146.969 517.18L170.229 526.74C168.799 532.14 165.459 541.78 157.229 550.74C151.859 556.59 143.189 566.02 131.229 565.74C119.629 565.47 108.729 556.14 103.229 542.74L121.229 508.74Z" fill="#656D4E" stroke="#22003A" stroke-width="3" stroke-miterlimit="10"/>
<path d="M235.229 542.74C238.069 545.21 242.799 548.56 249.229 549.74C253.269 550.48 258.419 550.45 274.229 543.74C290.289 536.92 298.329 533.51 301.229 527.74C305.939 518.39 301.839 507.5 299.659 502.75L235.229 542.74Z" fill="#656D4E" stroke="#22003A" stroke-width="3" stroke-miterlimit="10"/>
<path d="M66.2284 434.74C64.0584 438.88 70.3784 442.65 74.2284 456.74C76.1384 463.75 76.2184 467.04 77.2284 472.74C78.7084 481.12 82.3784 492.82 92.2284 506.74C101.008 519.56 100.998 526.63 99.2284 530.74C96.7584 536.48 95.9184 539.24 94.2284 544.74C93.7584 546.26 93.1484 548.36 94.2284 549.74C95.7584 551.7 99.6184 550.88 100.228 550.74C101.258 551.51 102.288 552.56 102.228 553.74C102.088 556.42 96.4584 557.01 96.2284 559.74C96.0784 561.51 98.2284 563.66 100.228 563.74C103.218 563.86 105.008 559.29 106.228 559.74C106.938 560 107.278 561.88 106.228 568.05C105.418 568.75 103.868 570.3 103.228 572.74C102.408 575.86 103.188 580.05 105.228 580.74C107.508 581.51 110.658 577.66 112.228 575.74C115.728 571.46 116.638 567.59 117.228 567.74C118.408 568.04 113.588 583.32 119.228 591.74C119.818 592.62 121.238 594.67 123.228 594.74C125.758 594.82 127.678 591.66 128.228 590.74C130.408 587.14 129.868 584.44 130.228 577.74C130.358 575.38 130.838 567.88 133.228 559.74C134.448 555.58 135.058 553.5 136.228 552.74C141.028 549.63 148.228 557.72 157.228 554.74C158.058 554.47 161.038 553.48 161.228 551.74C161.418 550.08 159.028 548.12 155.228 546.74C147.168 541.35 142.238 537.75 142.238 537.75C139.828 535.99 136.518 533.45 132.638 530.1L132.238 529.75C128.908 527.42 125.568 525.08 122.238 522.75L119.238 481.75C119.588 477.57 119.728 471.22 118.238 463.75C116.798 456.5 115.278 455.48 113.238 447.75C109.248 432.6 112.368 426.15 108.238 423.75C104.538 421.6 101.218 426.32 89.2384 429.75C75.2584 433.75 68.4384 430.56 66.2384 434.75L66.2284 434.74Z" fill="#BF2B52" stroke="#22003A" stroke-width="3" stroke-miterlimit="10"/>
<path d="M267.229 498.74C281.719 549.74 281.159 568.64 276.229 574.74C275.549 575.58 272.769 578.67 271.729 583.51C270.209 590.56 274.249 592.71 275.229 601.74C276.349 612.05 271.829 616.03 275.229 624.74C275.839 626.3 277.179 629.62 279.229 629.74C281.369 629.87 283.449 626.47 284.229 623.74C285.079 620.76 284.189 619.19 284.229 616.65C284.309 611.85 287.679 606.77 291.229 604.74C299.339 600.1 315.229 607.53 322.959 616.53C324.439 618.25 326.709 621.29 328.229 620.74C329.869 620.15 329.879 615.68 329.229 612.74C328.899 611.24 327.889 606.64 324.229 604.74C321.129 603.13 318.899 604.91 316.229 602.74C315.149 601.86 313.759 600.15 314.229 598.74C314.829 596.96 318.049 596.75 318.229 596.74C322.579 596.51 324.989 600.54 326.229 599.74C327.379 599 326.549 594.72 324.229 591.74C322.219 589.16 319.549 588.14 318.229 587.74C319.399 583.85 318.889 581.31 318.229 579.74C317.309 577.55 316.059 577.09 315.229 574.74C314.159 571.73 315.209 569.64 315.229 567.74C315.309 561.46 304.259 558.07 299.659 553.54C294.699 548.65 292.409 537.69 302.229 511.74C306.069 503.63 309.959 493.2 312.229 480.74C317.619 451.18 310.899 426.65 306.229 413.74L267.229 498.74Z" fill="#BF2B52" stroke="#22003A" stroke-width="3" stroke-miterlimit="10"/>
<path d="M120.078 245.35C103.308 248.14 87.2284 253.88 55.0784 265.35C45.8984 268.62 22.9784 277.03 17.0784 290.35C15.9584 292.88 14.3484 298.08 10.0784 305.35C7.41843 309.89 5.64843 311.95 4.07843 316.35C2.38843 321.1 2.12843 325.25 2.07843 328.35C1.86843 342.11 1.76843 348.99 6.07843 363.35C9.67843 375.35 11.1684 396.91 2.07843 438.83C10.0684 442.39 16.6984 443.21 21.0784 443.35C24.8084 443.46 28.3984 443.12 45.0784 439.35C60.0284 435.97 57.6884 436.12 62.0784 435.35C79.2184 432.33 84.4384 435.37 95.0784 430.35C98.7484 428.62 103.998 426.06 105.078 421.35C105.748 418.44 104.508 416.07 106.078 413.35C107.478 410.93 110.148 409.87 112.078 409.35L113.078 417.35C113.748 434.02 114.408 450.68 115.078 467.35C114.968 477.03 117.068 484.51 119.218 489.74C133.538 524.54 179.108 530.86 183.078 531.35C186.508 526.28 189.738 524.01 191.078 525.35C192.078 526.35 203.078 539.35 203.078 539.35L216.078 556.35C234.128 544.48 252.178 532.61 270.218 520.74C273.548 508.07 276.888 495.41 280.218 482.74C293.168 451.61 306.118 420.48 319.078 389.35C344.958 360.75 350.508 321.61 334.078 293.35C319.778 268.75 293.908 261.13 287.078 259.35C275.748 255.15 264.428 250.94 253.098 246.74C222.958 241.82 173.028 236.53 120.078 245.35Z" fill="#BF5C5C" stroke="#22003A" stroke-width="3" stroke-miterlimit="10"/>
<path d="M145.438 269.41L145.558 270.37C145.518 277.41 146.158 287.05 149.058 298.07C150.068 301.92 152.428 310.04 157.228 319.48C165.288 335.35 177.508 359.42 196.228 361.48C217.598 363.83 235.248 336.15 238.228 331.48C257.568 301.16 249.248 266.85 246.788 257.92" fill="#BF2B52"/>
<path d="M145.438 269.41L145.558 270.37C145.518 277.41 146.158 287.05 149.058 298.07C150.068 301.92 152.428 310.04 157.228 319.48C165.288 335.35 177.508 359.42 196.228 361.48C217.598 363.83 235.248 336.15 238.228 331.48C257.568 301.16 249.248 266.85 246.788 257.92" stroke="#22003A" stroke-width="3" stroke-miterlimit="10"/>
<path d="M112.139 138.56C110.659 144.28 109.289 151.76 109.139 160.56C108.959 170.89 110.509 179.56 112.139 185.87L119.139 225.56C120.569 231.51 123.169 240.07 128.139 249.56C139.379 271.03 155.029 282.56 162.229 287.75C171.799 294.64 179.409 300.11 191.229 301.75C195.399 302.33 205.659 303.62 216.139 298.56C218.769 297.29 223.799 294.47 237.229 275.75C248.689 259.77 254.419 251.78 257.139 241.56C258.069 238.05 258.409 235.33 258.139 212.56C257.809 184.66 257.589 170.44 255.139 157.56C252.089 141.55 250.569 133.55 246.139 127.56C227.399 102.23 182.819 108.61 176.139 109.56C153.779 112.76 146.439 127.82 135.139 124.56C131.519 123.51 131.309 121.73 128.229 121.75C121.349 121.8 115.809 130.77 112.139 138.56Z" fill="#BF2B52" stroke="#22003A" stroke-width="3" stroke-miterlimit="10"/>
<path d="M111.468 182.56C109.888 179.1 105.568 169.67 101.718 170.24C100.078 170.48 99.1085 172.45 98.7185 173.24C98.0385 174.61 96.9485 177.78 101.718 190.24C103.708 195.43 104.148 195.55 104.718 198.24C105.678 202.79 104.848 204.57 105.718 208.24C106.258 210.51 107.498 213.72 110.718 217.24L117.718 223.24C118.998 202.83 114.808 189.86 111.468 182.56Z" fill="#BF2B52" stroke="#22003A" stroke-width="3" stroke-miterlimit="10"/>
<path d="M257.529 181.61C257.699 180.3 258.959 171.56 265.569 168.47C266.849 167.87 268.639 167.03 270.229 167.75C272.499 168.78 272.559 172.17 273.229 183.75C273.919 195.68 274.119 196.71 273.229 199.2C271.679 203.56 270.129 203.01 267.229 209.75C266.449 211.56 265.579 213.89 263.229 215.75C261.779 216.89 260.289 217.45 259.229 217.75C258.559 205.75 257.899 193.75 257.229 181.75" fill="#BF2B52"/>
<path d="M257.529 181.61C257.699 180.3 258.959 171.56 265.569 168.47C266.849 167.87 268.639 167.03 270.229 167.75C272.499 168.78 272.559 172.17 273.229 183.75C273.919 195.68 274.119 196.71 273.229 199.2C271.679 203.56 270.129 203.01 267.229 209.75C266.449 211.56 265.579 213.89 263.229 215.75C261.779 216.89 260.289 217.45 259.229 217.75C258.559 205.75 257.899 193.75 257.229 181.75" stroke="#22003A" stroke-width="3" stroke-miterlimit="10"/>
<path d="M110.229 179.74C110.229 178.74 107.229 153.74 107.229 153.74L115.229 135.74L122.229 126.74L129.229 134.74V147.76L133.229 151.74L136.229 145.74L142.229 149.74L148.229 155.74L152.229 160.74L156.869 153.24L162.229 146.74L164.229 132.74L170.229 133.74L172.229 150.74V157.74L181.229 142.74L190.229 137.74L196.229 154.74L206.229 159.74L212.229 149.74L216.229 141.74L223.229 138.74L227.229 148.74L229.229 156.74L247.229 153.74C247.229 153.74 255.229 161.74 255.229 162.74C255.229 163.74 259.229 190.74 259.229 191.74C259.229 192.74 265.229 172.74 265.229 172.74C270.189 155.95 269.549 143.03 268.229 134.74C267.139 127.89 266.389 129.21 258.229 101.74C253.189 84.7703 253.099 83.0003 250.229 78.7403C250.229 78.7403 247.149 74.1603 229.229 58.7403L220.229 51.7403L238.229 53.7403L226.229 48.7403L206.229 47.7403L215.229 42.7403L221.229 39.7403L200.229 42.7403L207.229 34.7403L220.229 30.7403L212.229 29.7403L199.229 36.7403L190.229 43.7403L190.519 29.7403L197.229 16.7403L203.229 3.74031L189.229 21.7403L187.229 34.7403L185.229 16.7403C185.229 16.7403 187.229 0.740308 187.229 1.74031C187.229 2.74031 181.229 17.7403 181.229 17.7403L179.229 32.7403L172.229 29.7403L163.229 27.7403L173.229 35.7403L181.229 47.7403L176.229 54.7403L168.229 47.7403L157.229 39.7403L142.229 33.7403L125.229 36.7403L119.229 41.7403L130.229 42.7403L140.229 45.7403L120.229 50.7403L98.2285 69.7403L105.229 68.7403L95.2285 89.7403L87.2285 105.74L85.2285 120.74C85.2285 120.74 96.2285 150.74 96.2285 151.74C96.2285 152.74 103.229 170.74 103.229 170.74L110.229 179.74Z" fill="#140026" stroke="#22003A" stroke-miterlimit="10"/>
<path d="M366.896 559.666C359.066 573.306 351.226 586.956 343.396 600.596L335.396 646.596L332.396 698.596L314.396 846.596L497.396 802.596C497.396 802.596 543.396 688.596 543.396 683.596V640.036C484.566 613.246 425.726 586.456 366.896 559.676V559.666Z" fill="#676D56" stroke="black" stroke-width="3" stroke-miterlimit="10"/>
<path d="M385.206 386.716C385.206 386.716 392.786 409.856 392.756 410.356C392.726 410.856 436.726 391.856 436.726 391.856L442.726 375.856L385.206 386.716Z" fill="#516889" stroke="#001945" stroke-width="3" stroke-miterlimit="10"/>
<path d="M352.286 215.076C358.156 206.986 360.396 202.076 366.286 198.076C374.706 192.356 389.466 179.616 402.616 178.906C420.796 177.916 431.886 189.426 438.616 194.906C451.236 205.176 455.036 226.326 454.616 228.906C453.976 235.066 452.716 244.696 455.616 255.906C456.626 259.786 459.056 264.896 464.616 273.906C468.406 280.036 469.296 283.646 470.796 287.686C470.796 287.686 474.496 297.606 475.896 307.676C477.776 321.186 472.576 343.356 458.896 366.676C450.506 372.476 443.216 376.746 437.896 379.676C423.786 387.436 417.586 388.976 413.896 389.676C412.296 390.256 409.956 391.016 407.056 391.616C400.866 392.906 396.966 393.716 393.896 391.676C392.996 391.076 393.426 391.076 388.896 386.676C387.036 384.866 386.846 384.786 386.166 384.056C383.916 381.616 382.366 379.166 381.286 377.086C375.766 369.896 367.996 360.576 356.286 348.086C339.506 331.756 336.036 319.526 336.286 311.086C336.346 308.926 327.146 305.276 329.616 274.916C330.126 268.636 329.576 265.456 329.616 264.916C330.996 244.836 341.866 229.466 352.286 215.086V215.076Z" fill="#516889" stroke="#001945" stroke-width="3" stroke-miterlimit="10"/>
<path d="M520.846 394.146C536.426 404.376 545.356 419.626 553.846 434.146C564.186 451.816 568.406 466.896 571.846 479.146C576.006 493.966 576.066 500.216 575.846 504.146C575.296 513.976 572.486 517.926 570.846 529.146C569.866 535.826 569.376 544.576 570.846 555.146C569.886 556.936 568.446 559.706 566.846 563.146C561.346 574.946 558.596 580.846 559.846 586.146C560.806 590.216 563.216 592.546 561.846 595.146C560.646 597.416 558.206 596.776 556.846 599.146C555.056 602.276 558.266 605.186 556.846 609.146C555.896 611.786 553.926 611.976 551.846 614.146C546.896 619.296 550.016 626.506 548.346 634.286C546.806 641.426 541.936 645.756 535.846 651.146C521.096 664.226 466.386 676.276 420.846 647.146C381.206 621.786 362.456 574.156 367.846 557.146C368.546 554.936 371.436 547.616 368.846 539.696C366.786 533.406 362.676 531.036 358.846 526.146C352.806 518.426 351.986 510.156 350.806 498.326C349.956 489.796 346.706 457.146 368.076 430.086C377.796 417.776 388.556 411.766 398.846 406.146C408.986 400.606 475.416 364.336 520.846 394.146Z" fill="#CAD6E8" stroke="#001945" stroke-width="3" stroke-miterlimit="10"/>
<path d="M424.396 314.166C424.396 314.166 445.046 327.936 441.226 337.546" stroke="#466084" stroke-width="4" stroke-miterlimit="10"/>
<path d="M368.896 321.666C368.896 321.666 362.876 329.376 363.386 333.026" stroke="#466084" stroke-width="4" stroke-miterlimit="10"/>
<path d="M327.866 213.016C339.166 191.106 366.326 163.766 402.656 163.016C438.406 162.276 468.016 187.586 480.286 210.016C487.966 224.056 487.076 233.716 501.826 259.676C510.386 274.736 513.366 276.206 517.286 287.016C520.636 296.246 528.396 317.646 520.116 337.736C514.116 352.286 504.016 355.676 504.286 369.016C504.446 376.886 508.156 385.026 511.286 385.016C515.746 384.996 517.446 368.446 520.116 368.726C522.426 368.966 524.176 381.716 520.116 393.356C519.076 396.336 516.536 403.616 512.286 404.006C508.186 404.386 505.676 398.046 502.286 399.006C499.566 399.776 500.386 404.056 496.286 407.006C492.916 409.426 489.966 408.256 489.286 410.006C488.196 412.786 495.596 415.846 495.286 421.006C495.096 424.206 492.006 426.886 489.286 428.006C485.576 429.526 482.246 428.296 481.506 428.006C476.696 429.336 469.616 431.876 462.286 437.006C459.706 438.806 448.606 446.886 440.786 462.176C433.746 475.956 436.346 481.966 428.286 489.006C426.056 490.946 420.586 495.586 412.786 495.196C404.456 494.776 399.176 488.906 398.036 487.576C405.496 489.956 411.576 490.336 412.786 488.086C413.996 485.836 410.426 480.826 406.286 478.006C400.556 474.106 396.646 476.376 393.286 473.006C391.866 471.576 390.476 469.056 391.286 457.006C391.596 452.356 392.236 442.966 394.286 436.006C399.636 417.876 419.566 399.476 428.286 391.006C456.686 363.406 481.486 339.316 477.286 317.006C476.266 311.586 470.606 302.386 459.286 284.006C457.126 280.496 445.396 261.596 445.416 261.586C445.416 261.586 445.426 261.586 445.446 261.586C445.446 261.586 445.446 261.586 445.456 261.586C446.926 257.396 453.466 237.296 443.286 216.006C436.176 201.136 420.516 184.866 401.786 184.086C367.996 182.676 347.046 232.666 342.286 244.006C337.006 256.606 325.476 284.116 335.286 312.006C342.136 331.466 359.016 350.086 365.286 357.006C374.426 367.086 381.176 379.086 389.286 390.006C390.166 391.186 393.116 395.146 394.286 401.006C394.776 403.436 395.836 408.746 393.286 414.006C390.436 419.886 384.346 423.106 384.306 423.066C384.306 423.066 384.296 423.036 384.286 423.006C384.286 422.976 384.276 422.966 384.276 422.966C384.126 422.896 379.286 438.006 379.286 438.006C384.836 445.526 385.586 446.316 386.286 448.006C389.096 454.776 385.486 462.376 383.286 467.006C377.786 478.596 370.376 480.566 371.286 487.006C371.876 491.176 375.546 494.316 377.766 496.216C378.726 497.036 382.106 499.786 387.286 501.006C390.246 501.706 392.776 502.306 395.416 501.006C398.566 499.456 399.746 496.236 400.086 495.196C400.366 496.656 401.196 501.896 398.036 506.116C393.586 512.066 384.786 511.186 383.286 511.006C375.966 510.116 371.176 505.106 369.986 506.376C368.986 507.446 372.096 511.306 371.286 512.006C370.456 512.726 366.626 509.216 360.286 505.006C355.256 501.666 350.836 498.766 349.286 500.026C347.566 501.416 350.506 506.976 349.286 507.646C348.076 508.316 345.326 502.696 340.286 501.016C335.966 499.576 331.346 501.486 327.856 503.586C327.966 503.466 328.076 503.336 328.186 503.216C332.846 500.166 335.116 496.846 336.286 494.016C339.106 487.166 335.386 483.366 338.286 476.016C340.886 469.436 345.556 468.206 344.786 464.986C343.896 461.226 337.386 462.326 331.286 458.016C320.646 450.506 320.336 432.996 320.286 430.016C320.076 418.056 324.856 413.806 321.286 405.016C319.516 400.666 317.916 400.656 315.286 395.016C311.626 387.156 311.376 380.006 311.286 376.016C311.046 365.876 313.626 364.036 317.286 346.016C319.636 334.466 320.796 328.536 320.286 321.016C319.636 311.446 317.166 308.706 315.286 299.016C313.166 288.126 314.006 279.836 315.286 268.016C317.596 246.726 319.496 229.216 327.856 213.016H327.866Z" fill="#020A16"/>
<path d="M347.896 285.666C347.896 285.666 367.846 276.666 378.876 285.666" stroke="#001945" stroke-width="3" stroke-miterlimit="10" stroke-linecap="round"/>
<path d="M414.396 282.166C414.396 282.166 426.396 273.166 440.396 279.166" stroke="#001945" stroke-width="3" stroke-miterlimit="10" stroke-linecap="round"/>
<path d="M378.396 316.166C378.246 318.816 378.476 321.936 380.396 323.166C382.466 324.496 384.076 322.076 387.396 323.166C390.616 324.226 391.576 327.316 396.396 328.166C400.546 328.886 402.376 323.216 407.386 321.166C411.756 319.376 414.256 322.106 416.386 320.166C417.696 318.976 418.626 316.236 416.386 309.166" stroke="#001945" stroke-width="3" stroke-miterlimit="10" stroke-linecap="round"/>
<path d="M369.896 338.666C382.916 334.686 393.016 334.796 399.896 335.666C409.216 336.836 419.586 340.276 431.566 335.666C433.466 334.936 434.946 334.176 435.896 333.666C434.936 335.206 423.536 352.766 401.896 353.666C382.676 354.466 370.546 341.496 368.896 339.666" fill="#505D6D"/>
<path d="M369.896 338.666C382.916 334.686 393.016 334.796 399.896 335.666C409.216 336.836 419.586 340.276 431.566 335.666C433.466 334.936 434.946 334.176 435.896 333.666C434.936 335.206 423.536 352.766 401.896 353.666C382.676 354.466 370.546 341.496 368.896 339.666" stroke="#001945" stroke-width="3" stroke-miterlimit="10" stroke-linecap="round"/>
<path d="M371.896 339.666C371.896 339.666 398.646 349.436 428.266 337.546" stroke="#001945" stroke-width="3" stroke-miterlimit="10" stroke-linecap="round"/>
<path d="M345.896 266.666C345.896 266.666 355.896 260.666 373.896 263.666" stroke="#001945" stroke-width="4" stroke-linecap="round" stroke-linejoin="round"/>
<path d="M413.896 258.665C413.896 258.665 428.896 254.665 441.896 256.665" stroke="#001945" stroke-width="4" stroke-linecap="round" stroke-linejoin="round"/>
<path d="M398.046 179.596C398.046 179.596 400.886 176.186 399.886 166.926" stroke="#031F47" stroke-width="2" stroke-miterlimit="10" stroke-linecap="round"/>
<path d="M412.396 171.166C442.286 178.796 457.246 192.126 465.396 203.166C475.116 216.326 471.866 221.776 485.396 250.166C499.796 280.376 507.836 283.386 510.396 300.166C512.016 310.776 511.416 326.806 499.396 348.166" stroke="#031F47" stroke-width="2" stroke-miterlimit="10" stroke-linecap="round"/>
<path d="M415.346 183.456C429.506 189.466 439.156 197.266 444.846 202.626C452.786 210.116 462.066 218.856 465.966 232.686C469.356 244.676 465.486 248.746 468.106 262.006C470.676 275.046 477.166 284.836 482.396 291.176C484.956 296.586 488.316 305.656 488.396 317.176C488.546 338.606 477.216 353.546 473.396 358.176C457.396 381.846 441.396 405.506 425.396 429.176" stroke="#031F47" stroke-width="2" stroke-miterlimit="10"/>
<path d="M385.206 175.696C374.716 181.896 357.126 194.316 343.436 216.176C328.986 239.246 326.426 260.796 324.946 274.586C323.376 289.186 321.756 306.136 329.186 325.866C333.996 338.626 340.826 347.886 345.886 353.706C359.486 363.516 364.216 373.226 366.116 379.886C371.856 399.986 357.106 410.516 363.346 434.106C366.676 446.696 372.646 450.416 371.086 460.266C369.466 470.506 361.206 477.786 354.406 482.366" stroke="#031F47" stroke-width="2" stroke-miterlimit="10" stroke-linecap="round"/>
<path d="M544.896 446.666C553.646 454.786 558.366 465.576 561.896 473.666C565.106 481.006 569.656 493.786 569.886 493.696C569.886 493.696 569.886 493.686 569.886 493.666C570.666 499.706 571.266 508.626 569.886 519.176C568.546 529.436 565.706 538.336 555.886 559.656C550.716 570.896 543.766 585.226 534.886 601.656C535.606 629.116 535.146 658.896 532.886 690.656C529.276 741.456 521.766 787.086 512.886 826.656C531.116 834.166 550.116 841.586 569.886 848.826C586.816 855.026 603.396 860.766 619.586 866.076C620.486 866.366 621.386 866.666 622.286 866.956H244.396C259.156 850.356 275.486 829.366 290.896 803.656C312.076 768.316 324.916 735.116 332.896 708.656C339.236 680.356 348.696 659.846 355.896 646.656C371.456 618.166 379.036 619.116 390.896 591.656C393.946 584.606 400.166 568.986 412.896 538.656C414.846 534.006 418.446 525.626 425.896 516.656C432.336 508.906 439.096 503.796 443.896 500.656C442.606 495.196 441.066 485.316 443.896 473.656C448.516 454.656 461.586 443.906 465.896 440.656C473.396 437.016 487.696 431.456 505.896 432.656C514.506 433.226 531.626 434.346 544.896 446.656V446.666Z" fill="#516889" stroke="#001945" stroke-width="3" stroke-miterlimit="10"/>
<path d="M443.896 500.666C443.896 500.666 455.896 497.666 459.896 487.666L443.896 500.666Z" fill="#516889"/>
<path d="M443.896 500.666C443.896 500.666 455.896 497.666 459.896 487.666" stroke="#001945" stroke-width="3" stroke-miterlimit="10" stroke-linecap="round"/>
<path d="M434.896 534.666C438.316 530.986 452.676 516.396 475.896 514.666C481.116 514.276 500.266 513.146 516.896 526.666C520.266 529.406 535.706 541.946 535.896 558.666C535.976 565.296 533.616 569.236 533.896 580.666C534.066 587.516 535.086 593.076 535.896 596.646" stroke="#001945" stroke-width="3" stroke-miterlimit="10" stroke-linecap="round"/>
<path d="M363.896 383.666C355.936 374.486 329.036 383.036 312.616 388.256C307.676 389.826 302.746 391.776 292.896 395.666C258.996 409.076 254.026 413.416 250.896 410.666C240.516 401.576 268.886 348.646 268.896 348.656C268.896 348.656 268.896 348.656 268.896 348.666V348.676C269.096 348.776 290.896 296.666 290.896 296.666C304.263 289.472 311.056 285.806 311.276 285.666C321.366 279.406 321.246 276.776 344.456 257.386C349.406 253.256 354.516 249.106 361.896 248.666C366.966 248.366 371.196 249.926 373.896 251.246C377.106 249.716 381.886 247.786 387.896 246.666C396.106 245.146 402.736 245.846 409.986 246.666C424.736 248.336 428.816 251.326 436.896 248.666C439.406 247.836 444.496 246.076 445.896 241.666C446.786 238.836 446.176 234.896 443.896 233.466C440.896 231.586 436.546 235.006 435.256 233.466C434.026 232.006 437.796 228.706 436.896 226.666C434.566 221.346 403.566 231.466 400.896 225.666C400.156 224.046 402.166 222.406 401.196 221.026C399.416 218.496 391.906 222.896 381.896 223.666C377.206 224.026 378.996 222.966 361.896 220.666C353.496 219.536 351.686 219.576 349.896 217.666C346.156 213.666 349.226 208.316 344.896 203.666C342.756 201.366 339.086 199.536 336.896 200.666C333.876 202.226 335.556 208.456 334.896 213.666C333.326 225.986 318.766 231.446 292.896 247.666C280.686 255.316 272.136 260.586 263.896 267.666C247.866 281.436 238.346 296.446 232.896 306.666C217.356 329.096 205.006 348.646 195.896 363.666C176.036 396.416 164.536 419.196 157.896 447.666C151.246 476.176 155.166 486.006 159.896 491.666C168.556 502.026 183.526 502.746 189.896 502.666C212.586 501.366 224.776 500.666 224.776 500.666C224.776 500.666 260.056 487.576 269.896 483.666C296.966 472.916 317.136 457.716 325.836 451.146C335.316 443.996 342.736 437.376 347.896 432.506C363.746 411.946 370.646 391.456 363.896 383.676V383.666Z" fill="#516889" stroke="#001945" stroke-width="3" stroke-miterlimit="10"/>
<path d="M224.896 473.666C224.896 473.666 247.896 439.666 250.896 410.666" stroke="#001945" stroke-width="3" stroke-miterlimit="10"/>
<path d="M304.896 392.666C304.896 392.666 236.896 469.666 228.896 471.666C228.716 471.716 228.256 471.826 227.956 471.586C225.946 469.936 237.586 456.466 244.396 438.166C250.336 422.186 251.396 414.166 251.396 414.166C254.396 410.166 268.976 404.646 297.396 395.166C298.376 394.836 303.896 392.996 304.896 392.666Z" fill="#2B3E59"/>
<path d="M321.896 240.666C321.896 240.666 381.976 228.286 386.936 222.976" stroke="#001945" stroke-width="3" stroke-miterlimit="10" stroke-linecap="round"/>
<path d="M359.056 245.056C359.446 244.906 359.836 244.746 360.236 244.596C363.126 243.466 366.026 242.336 368.916 241.216C371.176 240.316 374.616 239.016 378.896 237.666C387.956 234.806 391.276 234.706 394.876 231.826C396.956 230.156 399.576 227.206 401.196 221.666" stroke="#001945" stroke-width="3" stroke-miterlimit="10" stroke-linecap="round"/>
<path d="M399.896 241.665C404.786 242.155 413.336 242.315 422.896 238.665C428.156 236.655 432.256 234.055 435.206 231.825" stroke="#001945" stroke-width="3" stroke-miterlimit="10" stroke-linecap="round"/>
<path d="M328.376 399.249C328.376 403.668 328.698 407.336 331.73 410.747" stroke="#020A16" stroke-width="10" stroke-linecap="round"/>
<path d="M333.167 409.07C333.542 404.871 331.148 402.182 329.122 398.889C329.074 398.811 328.914 398.625 328.909 398.716C328.806 400.363 329.617 402.261 330.053 403.8C331.045 407.303 331.801 410.754 332.315 414.353C332.345 414.558 332.449 415.893 332.449 415.671C332.449 412.574 331.81 409.577 331.011 406.595C329.889 402.401 328.103 398.34 327.338 394.059C327.111 392.786 326.775 390.198 327.179 393.021" stroke="#020A16" stroke-width="10" stroke-linecap="round"/>
<path d="M328.137 398.051C329.167 401.971 330.307 405.86 331.304 409.788C332.42 414.187 333.225 418.761 335.137 422.91C336.799 426.518 337.101 423.234 337.186 421.154C337.361 416.89 336.859 412.791 336.135 408.604C335.522 405.065 335.417 401.545 335.137 397.944C334.948 395.524 334.771 393.103 334.658 390.678C334.653 390.585 334.296 387.81 334.844 389.121C338.718 398.386 342.453 407.514 344.878 417.294C345.66 420.447 346.381 423.625 347.087 426.796C347.287 427.692 347.569 430.292 347.886 429.431C348.396 428.046 348.022 425.626 347.952 424.268C347.627 417.923 345.686 412.097 343.521 406.169C341.873 401.656 339.998 397.192 338.757 392.541C338.156 390.292 337.832 387.97 337.386 385.688C337.368 385.598 337.211 384.123 337.253 385.155C337.406 388.976 338.072 392.739 338.677 396.507C340.436 407.469 342.73 418.276 344.865 429.165C344.891 429.296 345.093 431.167 345.49 431.281C345.588 431.309 345.602 431.103 345.61 431.001C345.673 430.182 345.639 429.347 345.677 428.526C346.054 420.384 346.781 412.347 345.411 404.239C345.339 403.813 345.013 402.569 345.025 403.001C345.05 403.919 345.549 408.128 345.557 408.205C346.353 415.752 346.558 423.454 347.966 430.922C348.357 432.997 349.243 439.186 349.443 437.083C349.921 432.06 349.618 426.807 349.696 421.766" stroke="#020A16" stroke-width="10" stroke-linecap="round"/>
<path d="M347.779 416.496C347.09 415.117 346.39 413.743 345.717 412.357C345.515 411.941 345.433 410.732 345.144 411.093C344.72 411.623 345.144 412.45 345.144 413.129C345.144 415.706 345.149 418.284 345.198 420.861C345.301 426.315 345.517 431.739 346.236 437.15C346.395 438.351 346.532 439.555 346.688 440.756C346.797 441.599 346.81 441.368 346.662 440.903C345.07 435.915 341.33 432.104 338.73 427.675C337.905 426.269 338.868 429.472 338.89 429.564C340.036 434.512 341.767 439.236 342.589 444.27C342.875 446.02 343.228 447.823 343.228 449.606C343.228 451.172 343.228 446.474 343.228 444.908C343.228 440.925 342.826 437.638 341.232 433.969C340.82 433.022 340.397 432.08 339.981 431.135C339.876 430.897 339.695 430.174 339.648 430.429C339.068 433.618 340.129 437.588 340.593 440.703C341.203 444.791 341.3 448.965 342.017 453.026C342.147 453.761 342.043 455.903 342.376 455.236C342.516 454.955 342.118 454.072 342.057 453.918C341.184 451.712 339.949 449.631 338.677 447.637C336.787 444.674 334.192 442.485 332.129 439.705C332.048 439.596 331.341 438.268 331.304 438.454C331.062 439.666 331.753 441.508 332.023 442.686C332.248 443.672 332.409 445.023 332.928 445.907C333.336 446.603 333.072 447.481 333.22 448.355C333.32 448.943 333.609 449.456 333.646 450.059C333.663 450.33 333.552 449.386 333.287 449.327C332.467 449.145 332.581 449.302 332.076 448.581C331.736 448.095 331.274 446.992 331.251 446.386C331.181 444.574 331.47 442.531 330.892 440.796C330.26 438.903 330.293 436.545 330.293 434.555C330.293 432.782 330.267 431.06 330.053 429.298C329.799 427.205 330.009 425.097 329.76 423.017C329.254 418.773 328.9 414.503 328.855 410.214C328.836 408.399 328.923 406.573 328.855 404.758C328.821 403.841 328.245 403.151 327.95 402.309C327.476 400.955 327.06 399.568 326.686 398.184C325.929 395.384 325.023 392.7 325.023 389.773C325.023 388.425 325.023 387.076 325.023 385.728C325.023 383.719 326.228 382.633 326.886 380.857C327.096 380.29 327.612 379.983 328.057 380.724C329.461 383.064 328.855 386.399 328.855 389.015C328.855 390.019 328.907 389.527 329.401 388.868C330.665 387.183 331.664 385.299 332.994 383.665C333.229 383.376 333.968 382.35 334.471 382.494C334.637 382.541 334.588 382.753 334.604 382.88C334.859 384.822 335.618 386.738 336.175 388.602C337.457 392.897 338.749 397.119 340.513 401.245C340.653 401.572 340.982 403.336 341.365 402.336C342.334 399.802 342.208 396.878 342.376 394.218C342.641 390.036 342.815 386.009 342.163 381.842C341.91 380.222 340.99 375.39 341.312 376.998C342.104 380.959 343.789 384.74 345.357 388.443C346.908 392.102 348.707 395.642 350.308 399.275C351.077 401.021 350.578 395.452 350.401 393.553C350.16 390.965 349.825 388.365 349.709 385.768C349.697 385.495 349.696 383.542 349.696 384.956C349.696 389.699 349.272 403.921 349.47 399.182C349.76 392.207 349.696 385.228 349.696 378.249C349.696 378.056 349.835 376.122 349.922 377.25C350.032 378.686 349.935 380.164 349.935 381.602C349.935 382.822 349.18 385.45 350.893 385.355C352.702 385.255 353.603 381.977 354.247 380.671C354.508 380.141 354.797 378.108 355.445 379.366C355.744 379.948 355.684 380.53 355.684 381.163C355.684 381.549 356.073 381.743 356.177 382.108C356.352 382.722 356.423 383.294 356.403 384.024C356.361 385.571 355.396 386.95 354.886 388.363C353.942 390.976 353.839 394.292 353.755 397.039C353.621 401.4 352.833 405.88 352.091 410.148C351.845 411.561 351.078 412.933 350.428 414.194C350.096 414.835 350.038 415.456 349.816 416.123C349.462 417.183 349.98 415.184 350.042 415.005C351.089 411.955 352.25 408.806 352.863 405.636C352.888 405.507 353.283 404.619 353.289 404.785C353.339 406.141 353.144 407.483 352.93 408.817C352.459 411.746 351.612 414.565 351.612 417.507C351.612 418.616 351.484 419.801 351.798 420.861C352.024 421.621 352.183 421.66 352.703 422.245C353.061 422.647 352.683 423.344 353.049 423.802C353.608 424.5 353.89 420.712 353.715 420.142C353.299 418.791 353.701 417.455 353.994 416.137C354.49 413.906 355.138 411.769 355.205 409.416C355.247 407.94 355.684 406.468 355.684 404.998C355.684 403.828 355.71 401.838 356.283 400.806C357.656 398.335 357.601 394.576 357.601 391.823C357.601 390.703 358.08 389.778 358.08 388.709C358.08 388.175 357.742 385.799 358.133 385.408C358.644 384.897 360.258 387.249 358.665 385.701C357.509 384.577 355.936 383.97 354.779 382.773C354.069 382.039 352.343 380.665 352.078 379.739C351.776 378.682 350.406 377.202 349.603 376.399C348.589 375.385 347.466 374.469 346.103 373.977C344.8 373.506 343.314 372.18 341.911 372.18C339.252 372.18 336.591 372.083 333.939 371.887C331.976 371.742 330.324 371.474 328.509 372.42C326.656 373.386 326.072 375.12 324.969 376.731C324.019 378.121 323.075 379.734 321.403 380.418C321.015 380.576 320.248 380.383 319.979 380.697C319.749 380.966 319.447 381.314 319.154 381.509C318.634 381.856 318.315 382.086 318.315 382.72C318.315 383.585 318.599 384.68 318.781 385.501C318.924 386.145 318.84 386.771 319.021 387.404C319.122 387.757 319.274 388.494 319.274 388.828C319.274 389.868 319.077 391.104 319.46 392.062C319.735 392.749 319.37 393.524 319.699 394.218C319.929 394.702 320.232 395.361 320.232 395.895C320.232 396.942 320.471 397.896 320.471 398.903C320.471 399.498 320.782 400.286 321.07 400.806C321.322 401.259 321.153 401.875 321.31 402.376C321.754 403.796 322.272 404.822 322.388 406.382C322.432 406.98 322.873 407.796 323.053 408.405C323.228 408.996 323.106 409.777 323.106 410.387C323.106 411.534 323.825 412.61 323.825 413.621C323.825 416.085 324.803 418.73 325.249 421.18C325.397 421.994 326.033 424.715 326.699 425.173C326.948 425.343 327.361 426.696 327.471 427.036C327.779 427.986 327.944 428.957 328.483 429.804C329.154 430.859 328.498 432.08 328.975 433.131C329.495 434.275 328.79 436.357 329.574 437.336C330.214 438.136 330.507 440.063 330.785 441.036C330.915 441.491 331.288 441.8 331.597 442.154C332.128 442.76 332.035 443.804 333.167 443.804" stroke="#020A16" stroke-width="10" stroke-linecap="round"/>
<path d="M361.166 386.086C361.166 386.603 361.017 387.104 360.933 387.613C360.592 389.682 360.711 391.794 360.493 393.878C360.405 394.725 360.29 395.569 360.209 396.418C360.171 396.805 360.073 397.225 360.073 397.615C360.073 397.924 360.237 397.018 360.296 396.715C360.519 395.58 360.539 394.459 360.584 393.308" stroke="#020A16" stroke-width="10" stroke-linecap="round"/>
<path d="M360.642 391.736C360.626 390.842 360.566 389.974 360.422 389.092C360.394 388.918 360.395 389.005 360.351 389.115" stroke="#020A16" stroke-width="10" stroke-linecap="round"/>
<path d="M360.293 389.231C359.791 390.777 359.444 392.343 359.128 393.936C358.838 395.394 358.493 396.833 358.15 398.279C357.968 399.049 357.687 399.866 357.62 400.66C357.57 401.248 357.662 401.806 357.484 402.381C357.188 403.335 357.389 404.389 357.267 405.362C357.252 405.486 357.264 405.618 357.264 405.743C357.264 405.833 357.723 405.157 357.775 405.061C357.912 404.806 357.961 404.398 358.15 404.187C358.288 404.033 358.433 403.783 358.51 403.588C358.73 403.026 359.244 402.32 359.244 401.695" stroke="#020A16" stroke-width="10" stroke-linecap="round"/>
<path d="M358.196 376.534C358.509 376.971 358.662 377.459 358.911 377.926C359.163 378.398 359.381 378.857 359.522 379.375C359.63 379.768 359.754 380.214 359.768 380.624C359.778 380.907 359.73 381.2 359.827 381.472C359.931 381.764 359.829 382.065 359.898 382.358C360.095 383.197 359.943 384.234 359.943 385.096C359.943 385.453 359.97 385.806 359.885 386.148C359.838 386.334 359.722 386.899 359.775 386.714C359.842 386.478 360.009 386.267 360.105 386.041C360.191 385.836 360.208 385.624 360.267 385.413C360.411 384.898 360.567 384.526 360.813 384.073C361.004 383.724 360.933 384.485 360.933 384.627C360.933 384.803 360.933 384.978 360.933 385.154" stroke="#020A16" stroke-width="10" stroke-linecap="round"/>
<path d="M357.669 404.345C357.669 405.184 357.719 405.972 357.411 406.766C357.308 407.031 357.307 407.336 357.223 407.612C357.133 407.908 356.929 408.212 356.929 408.523C356.929 409.387 356.717 410.252 356.717 411.115C356.717 411.82 356.506 412.506 356.506 413.207C356.506 413.9 356.405 414.486 356.188 415.135" stroke="#020A16" stroke-width="10" stroke-linecap="round"/>
</svg>
