<svg width="22" height="22" viewBox="0 0 22 22" fill="none" xmlns="http://www.w3.org/2000/svg">
<g clip-path="url(#clip0_202_19)">
<path d="M21.2695 20.0277L16.1477 14.9059C17.398 13.3805 18.1457 11.434 18.1457 9.30703C18.1457 4.43008 14.1883 0.472656 9.31133 0.472656C4.43008 0.472656 0.472656 4.43008 0.472656 9.31133C0.472656 14.1926 4.43008 18.15 9.31133 18.15C11.434 18.15 13.3848 17.4023 14.9102 16.152L20.0277 21.2695C20.3715 21.6133 20.9258 21.6133 21.2695 21.2695C21.6133 20.9258 21.6133 20.3715 21.2695 20.0277ZM2.22578 9.31133C2.22578 5.40117 5.39688 2.23008 9.30703 2.23008C13.2172 2.23008 16.3883 5.40117 16.3883 9.31133C16.3883 13.2215 13.2172 16.3926 9.30703 16.3926C5.39688 16.3926 2.22578 13.2215 2.22578 9.31133Z" fill="#8D8D8D"/>
</g>
<defs>
<clipPath id="clip0_202_19">
<rect width="22" height="22" fill="white"/>
</clipPath>
</defs>
</svg>
