<svg width="1278" height="743" viewBox="0 0 1278 743" fill="none" xmlns="http://www.w3.org/2000/svg">
<mask id="mask0_181_595" style="mask-type:luminance" maskUnits="userSpaceOnUse" x="0" y="-32" width="1363" height="775">
<path d="M1362.87 -32H0.21875V742.057H1362.87V-32Z" fill="white"/>
</mask>
<g mask="url(#mask0_181_595)">
<g style="mix-blend-mode:multiply">
<mask id="mask1_181_595" style="mask-type:luminance" maskUnits="userSpaceOnUse" x="0" y="-32" width="801" height="801">
<path d="M800.01 -32H0.21875V768.434H800.01V-32Z" fill="white"/>
</mask>
<g mask="url(#mask1_181_595)">
<g opacity="0.75">
<path opacity="0.75" d="M69.0708 318.799C69.0708 309.515 61.6188 301.959 52.4804 301.959C43.3223 301.959 35.8704 309.515 35.8704 318.799C35.8704 328.082 43.3223 335.638 52.4804 335.638C61.6385 335.638 69.0904 328.082 69.0708 318.799ZM36.8117 318.799C36.8117 310.045 43.8322 302.921 52.4608 302.921C61.0894 302.921 68.1099 310.045 68.1099 318.799C68.1099 327.552 61.0894 334.656 52.4608 334.676C43.8322 334.676 36.8117 327.552 36.8117 318.799Z" fill="#D7E2F4"/>
<path opacity="0.75" d="M198.657 -5.50464C191.499 -5.50464 185.675 0.402842 185.675 7.66453C185.675 14.9262 191.499 20.8337 198.657 20.8337C205.814 20.8337 211.639 14.9262 211.639 7.66453C211.639 0.402842 205.814 -5.50464 198.657 -5.50464ZM198.657 18.4001C192.832 18.4001 188.067 13.5916 188.067 7.66453C188.067 1.73742 192.813 -3.071 198.657 -3.071C204.501 -3.071 209.246 1.75705 209.246 7.66453C209.246 13.572 204.501 18.4001 198.657 18.4001Z" fill="#D7E2F4"/>
<path opacity="0.75" d="M66.345 362.82C66.345 366.078 68.9532 368.708 72.1497 368.708C75.3658 368.708 77.9543 366.078 77.9543 362.82C77.9543 359.562 75.3461 356.932 72.1497 356.932C68.9335 356.932 66.345 359.562 66.345 362.82Z" fill="#D7E2F4"/>
<path opacity="0.75" d="M37.1844 483.894C37.1844 480.636 34.5762 478.006 31.3797 478.006C30.9483 478.006 30.5364 478.065 30.1246 478.143V389.629L51.2646 371.652V405.134C49.735 405.644 48.6172 407.097 48.6172 408.824C48.6172 410.983 50.343 412.729 52.4609 412.729C54.5788 412.729 56.3045 410.983 56.3045 408.824C56.3045 407.097 55.1867 405.644 53.6571 405.134V343.586C66.5804 342.958 76.9151 332.085 76.9151 318.818C76.9151 305.551 66.6 294.678 53.6571 294.05V267.515L84.5827 236.133V180.983C87.2105 180.414 89.1912 178.059 89.1912 175.213C89.1912 172.367 87.2105 170.012 84.5827 169.443V144.008L106.488 166.224V234.582C104.938 235.093 103.821 236.545 103.821 238.292C103.821 240.451 105.546 242.197 107.664 242.197C109.802 242.197 111.527 240.451 111.527 238.292C111.527 236.545 110.41 235.093 108.86 234.582V165.224L84.5631 140.593V119.907C97.2707 119.671 109.057 115.628 118.921 108.896L118.881 108.936L142.061 132.448L143.728 130.76L126.314 161.377L143.943 192.367H179.223L196.852 161.377L179.223 130.387H143.943L143.747 130.74L120.862 107.523C136.472 95.9627 146.728 77.416 147.101 56.4552H158.71L170.123 76.5132H178.987L196.48 94.2552H166.947L159.73 86.915L158.024 88.6225L165.946 96.6693H198.853L215.776 113.823H258.488L272.764 128.307C272.49 128.837 272.333 129.425 272.333 130.073C272.333 132.232 274.059 133.979 276.196 133.979C278.334 133.979 280.059 132.232 280.059 130.073C280.059 127.914 278.334 126.167 276.196 126.167C275.569 126.167 274.98 126.344 274.451 126.599L259.468 111.389H216.757L182.341 76.4739H193.126L220.954 104.696H290.178V102.263H221.934L195.107 75.0412L205.716 56.3963H230.406L258.057 28.3309H284.472C285.021 31 287.354 33.0215 290.159 33.0215C292.963 33.0215 295.297 31.0197 295.846 28.3309H324.928C325.438 29.901 326.869 31.0393 328.576 31.0393C330.713 31.0393 332.439 29.2926 332.439 27.1141C332.439 24.9552 330.713 23.2084 328.576 23.2084C326.869 23.2084 325.438 24.3468 324.928 25.9169H295.846C295.297 23.2477 292.963 21.2262 290.159 21.2262C287.354 21.2262 285.021 23.2281 284.472 25.9169H257.076L229.425 53.9823H205.736L194.303 33.9243H170.084L162.515 47.2113H138.08C136.452 35.6318 131.314 25.1907 123.823 17.0262L134.04 6.66357V-36.9458C135.746 -37.3383 137.041 -38.8888 137.041 -40.7533C137.041 -42.9122 135.315 -44.6589 133.177 -44.6589C131.059 -44.6589 129.314 -42.9122 129.314 -40.7533C129.314 -39.1439 130.275 -37.7701 131.648 -37.1617V5.66264L122.156 15.2991C112.155 5.28974 98.4277 -0.912136 83.3081 -0.912136C68.1884 -0.912136 54.4612 5.28974 44.4598 15.2991L40.1848 10.9617C51.2843 -0.16634 66.5019 -7.03551 83.3081 -7.03551V-9.46915C65.8548 -9.46915 50.0292 -2.30559 38.4983 9.25423L-14.3714 -44.4823C-14.0969 -45.0122 -13.94 -45.601 -13.94 -46.2486C-13.94 -48.4075 -15.6657 -50.1542 -17.8032 -50.1542C-19.9212 -50.1542 -21.6665 -48.4075 -21.6665 -46.2486C-21.6665 -44.0897 -19.9408 -42.343 -17.8032 -42.343C-17.1757 -42.343 -16.5874 -42.5 -16.0579 -42.7748L36.9294 10.9617C26.2221 22.5412 19.633 38.1047 19.633 55.1991H22.0255C22.0255 38.772 28.3401 23.8169 38.6159 12.6888L42.891 17.0262C33.6937 27.0552 28.0655 40.4795 28.0655 55.2188C28.0655 69.958 33.9487 83.9319 43.4597 94.0197L23.8493 113.921V148.109L-17.8817 190.443C-18.2739 190.306 -18.7053 190.208 -19.1367 190.208C-21.2743 190.208 -23 191.954 -23 194.113C-23 196.272 -21.2743 198.019 -19.1367 198.019C-16.9992 198.019 -15.2735 196.272 -15.2735 194.113C-15.2735 193.289 -15.5284 192.543 -15.9402 191.915L23.8493 151.544V161.396L-17.8032 203.652C-18.2151 203.495 -18.6661 203.396 -19.1367 203.396C-21.2547 203.396 -23 205.143 -23 207.302C-23 209.461 -21.2743 211.208 -19.1367 211.208C-16.9992 211.208 -15.2735 209.461 -15.2735 207.302C-15.2735 206.497 -15.5088 205.771 -15.9206 205.143L23.8493 164.811V214.211C22.3001 214.721 21.1823 216.173 21.1823 217.92C21.1823 220.079 22.908 221.825 25.0455 221.825C27.1831 221.825 28.9088 220.079 28.9088 217.92C28.9088 216.193 27.791 214.721 26.2418 214.211V162.397L26.4183 162.221L26.2418 162.044V149.11L26.4183 148.934L26.2418 148.757V114.922L45.1658 95.7272C55.1083 105.383 68.5806 111.35 83.4061 111.35C113.528 111.35 138.08 86.8169 138.707 56.4356H144.748C144.1 90.2122 116.842 117.493 83.4061 117.493H82.2099V169.463C79.5821 170.012 77.6014 172.387 77.6014 175.233C77.6014 178.079 79.5821 180.453 82.2099 181.003V235.152L51.2843 266.514V294.05C38.361 294.678 28.0263 305.551 28.0263 318.818C28.0263 332.085 38.361 342.958 51.2843 343.586V368.472L27.7518 388.491V479.301C26.4182 480.381 25.575 482.029 25.575 483.894C25.575 487.152 28.1832 489.782 31.3797 489.801C34.5958 489.801 37.1844 487.171 37.1844 483.894ZM177.85 132.781L194.107 161.338L177.85 189.894H145.336L129.079 161.338L145.336 132.781H177.85ZM193.009 36.358L203.736 55.2188L193.009 74.0795H171.535L160.808 55.2188L171.535 36.358H193.009ZM161.22 49.6449L158.749 54.0019H138.707C138.688 52.53 138.609 51.0776 138.472 49.6449H161.24H161.22ZM82.8962 54.0019L50.7156 86.6403C43.0479 78.4365 38.3218 67.3674 38.3218 55.1991C38.3218 29.9795 58.5401 9.48974 83.3865 9.48974C107.841 9.48974 127.785 29.3514 128.412 54.0019H82.8766H82.8962ZM83.8768 56.4159H128.412C127.765 81.0664 107.821 100.928 83.3865 100.928C71.3849 100.928 60.4815 96.1394 52.4021 88.3674L83.8768 56.4356V56.4159ZM30.4384 55.1991C30.4384 25.5832 54.1866 1.48225 83.3865 1.48225C112.586 1.48225 135.668 24.9355 136.295 53.9823H129.373C128.726 28.8019 108.351 8.50843 83.3865 8.50843C58.4225 8.50843 37.3609 29.4496 37.3609 55.1991C37.3609 67.6421 42.185 78.9468 50.0292 87.3272L45.1266 92.2926C36.0274 82.6365 30.4188 69.5851 30.4188 55.1991H30.4384ZM83.3865 108.916C69.2082 108.916 56.3438 103.224 46.8327 94.0001L51.7353 89.0347C59.9913 96.9833 71.13 101.89 83.4061 101.89C108.39 101.89 128.765 81.5963 129.393 56.4159H136.315C135.668 85.4823 112.194 108.916 83.4061 108.916H83.3865ZM30.3992 318.798C30.3992 306.454 40.3024 296.425 52.4609 296.425C64.6193 296.425 74.5226 306.454 74.5226 318.798C74.5226 331.143 64.6193 341.172 52.4609 341.172C40.3024 341.172 30.3992 331.143 30.3992 318.798Z" fill="#D7E2F4"/>
<path opacity="0.75" d="M256.194 72.0384C256.194 68.7805 253.585 66.1506 250.389 66.1506C247.173 66.1506 244.584 68.7805 244.584 72.0384C244.584 75.2964 247.192 77.9263 250.389 77.9263C253.585 77.9263 256.194 75.2964 256.194 72.0384Z" fill="#D7E2F4"/>
<path opacity="0.75" d="M238.368 72.0384C238.368 68.7805 235.759 66.1506 232.563 66.1506C229.347 66.1506 226.758 68.7805 226.758 72.0384C226.758 75.2964 229.366 77.9263 232.563 77.9263C235.779 77.9263 238.368 75.2768 238.368 72.0384Z" fill="#D7E2F4"/>
<path opacity="0.75" d="M164.927 205.438C164.927 208.696 167.535 211.325 170.731 211.325C173.928 211.325 176.536 208.696 176.536 205.438C176.536 202.18 173.928 199.55 170.731 199.55C167.535 199.55 164.927 202.18 164.927 205.438Z" fill="#D7E2F4"/>
<path opacity="0.75" d="M158.73 205.438C158.73 202.18 156.141 199.55 152.925 199.55C149.709 199.55 147.12 202.18 147.12 205.438C147.12 208.696 149.709 211.325 152.925 211.325C156.141 211.325 158.73 208.696 158.73 205.438Z" fill="#D7E2F4"/>
<path opacity="0.75" d="M198.657 3.73926C196.519 3.73926 194.813 5.48599 194.813 7.64487C194.813 9.80375 196.539 11.5505 198.657 11.5505C200.775 11.5505 202.52 9.80375 202.52 7.64487C202.52 5.48599 200.794 3.73926 198.657 3.73926Z" fill="#D7E2F4"/>
<path opacity="0.75" d="M4.53304 55.2188C4.53304 47.9571 -1.29126 42.0496 -8.44906 42.0496C-15.6069 42.0496 -21.4312 47.9571 -21.4312 55.2188C-21.4312 62.4805 -15.6069 68.388 -8.44906 68.388C-1.29126 68.388 4.53304 62.4805 4.53304 55.2188ZM-19.0191 55.2188C-19.0191 49.2917 -14.2734 44.4833 -8.42945 44.4833C-2.58554 44.4833 2.16018 49.2917 2.16018 55.2188C2.16018 61.1459 -2.58554 65.9543 -8.42945 65.9543C-14.2734 65.9543 -19.0191 61.1459 -19.0191 55.2188Z" fill="#D7E2F4"/>
<path opacity="0.75" d="M14.9854 255.367C14.9854 248.105 9.16114 242.197 2.00333 242.197C-5.15447 242.197 -10.9788 248.105 -10.9788 255.367C-10.9788 262.628 -5.15447 268.536 2.00333 268.536C9.16114 268.536 14.9854 262.628 14.9854 255.367ZM-8.56668 255.367C-8.56668 249.439 -3.82096 244.631 2.02295 244.631C7.86685 244.631 12.6126 249.439 12.6126 255.367C12.6126 261.294 7.86685 266.102 2.02295 266.102C-3.82096 266.102 -8.56668 261.294 -8.56668 255.367Z" fill="#D7E2F4"/>
<path opacity="0.75" d="M5.86664 255.347C5.86664 253.188 4.14092 251.441 2.00339 251.441C-0.134146 251.441 -1.85986 253.188 -1.85986 255.347C-1.85986 257.506 -0.134146 259.253 2.00339 259.253C4.14092 259.253 5.86664 257.506 5.86664 255.347Z" fill="#D7E2F4"/>
<path opacity="0.75" d="M162.691 7.64487C162.691 9.80375 164.417 11.5505 166.554 11.5505C168.692 11.5505 170.417 9.80375 170.417 7.64487C170.417 5.48599 168.692 3.73926 166.554 3.73926C164.417 3.73926 162.691 5.48599 162.691 7.64487Z" fill="#D7E2F4"/>
<path opacity="0.75" d="M39.0866 267.77C39.0866 267.142 38.9297 266.534 38.6552 266.004L73.346 230.814V119.573H70.9535V165.361L51.0686 185.537V221.825H53.4611V186.557L70.9535 168.815V229.813L36.9687 264.296C36.4392 264.022 35.8509 263.865 35.2234 263.865C33.0858 263.865 31.3601 265.611 31.3601 267.77C31.3601 269.929 33.0858 271.676 35.2234 271.676C37.3609 271.676 39.0866 269.929 39.0866 267.77Z" fill="#D7E2F4"/>
<path opacity="0.75" d="M389.603 -15.2589H347.029L316.437 15.7702H251.781L220.934 47.0543L222.621 48.7618L252.762 18.1842H411.371L422.804 38.2421H447.023L458.436 18.1842H566.136V15.7505H458.436L454.808 9.37201H516.208C516.718 10.9421 518.15 12.0804 519.856 12.0804C521.993 12.0804 523.699 10.3337 523.699 8.17481C523.699 6.01593 521.974 4.26921 519.856 4.26921C518.15 4.26921 516.718 5.40753 516.208 6.97762H453.435L447.023 -4.28781H422.804L411.371 15.7898H319.81L348.01 -12.8252H389.682C390.231 -11.3336 391.623 -10.2738 393.29 -10.2738C395.428 -10.2738 397.153 -12.0205 397.153 -14.1794C397.153 -16.3383 395.428 -18.085 393.29 -18.085C391.525 -18.085 390.054 -16.8878 389.603 -15.2392V-15.2589ZM445.65 -1.87379L451.749 8.86174V9.39164H452.043L456.357 16.987L445.63 35.8477H424.176L413.45 16.987L424.176 -1.87379H445.63H445.65Z" fill="#D7E2F4"/>
<path opacity="0.75" d="M365.776 36.6328L371.758 33.3159L365.933 29.7243L360.109 26.1328L359.952 33.0412L359.815 39.9496L365.776 36.6328Z" fill="#D7E2F4"/>
<path d="M71.8948 387.706L75.4247 381.799L78.9546 375.891L72.1498 375.754L65.345 375.597L68.6199 381.661L71.8948 387.706Z" fill="#D7E2F4"/>
<path opacity="0.75" d="M202.245 193.662L205.775 187.754L209.325 181.847L202.5 181.71L195.695 181.553L198.97 187.617L202.245 193.662Z" fill="#D7E2F4"/>
<path opacity="0.75" d="M155.847 108.268L150.023 104.677L144.198 101.085L144.061 107.994L143.904 114.902L149.885 111.585L155.847 108.268Z" fill="#D7E2F4"/>
<path d="M410.763 100.791L416.724 97.4739L422.705 94.1375L416.881 90.5655L411.057 86.9739L410.9 93.8823L410.763 100.791Z" fill="#D7E2F4"/>
<path opacity="0.75" d="M566.136 23.8954L572.117 20.5589L578.099 17.2421L572.255 13.6505L566.43 10.0786L566.293 16.987L566.136 23.8954Z" fill="#D7E2F4"/>
<path opacity="0.75" d="M349.637 29.7243L343.813 26.1328L343.656 33.0412L343.519 39.9496L349.48 36.6328L355.461 33.3159L349.637 29.7243Z" fill="#D7E2F4"/>
<path opacity="0.75" d="M426.628 31.5496H443.218L451.513 16.9869L443.218 2.42432H426.628L418.333 16.9869L426.628 31.5496ZM442.649 3.386L450.396 16.9869L442.649 30.5879H427.177L419.431 16.9869L427.177 3.386H442.649Z" fill="#D7E2F4"/>
<path opacity="0.75" d="M147.709 185.262L147.846 185.497H175.359L189.106 161.338L175.497 137.413L175.359 137.178H147.866L134.119 161.338L147.728 185.262H147.709ZM174.81 138.159L188.008 161.357L174.81 184.555H148.415L135.217 161.357L148.415 138.159H174.81Z" fill="#D7E2F4"/>
<path opacity="0.75" d="M17.0445 79.045H7.02361L2.02295 87.8571L7.02361 96.6693H17.0445L22.0648 87.8571L17.0445 79.045Z" fill="#D7E2F4"/>
<path opacity="0.75" d="M229.406 156.588H235.701L238.858 151.053L235.701 145.499H229.406L226.248 151.053L229.406 156.588Z" fill="#D7E2F4"/>
<path opacity="0.75" d="M101.781 342.742H110.41L114.724 335.167L110.41 327.571H101.781L97.4668 335.167L101.781 342.742Z" fill="#D7E2F4"/>
<path opacity="0.75" d="M191.107 70.7431L199.951 55.1992L191.107 39.6552H173.418L164.574 55.1795L173.418 70.7235H191.107V70.7431ZM173.987 69.7814L165.692 55.2188L173.987 40.6562H190.558L198.853 55.2188L190.558 69.7814H173.987Z" fill="#D7E2F4"/>
<path opacity="0.75" d="M221.777 95.0992H331.125C331.635 96.6693 333.066 97.8076 334.773 97.8076C336.91 97.8076 338.636 96.0608 338.636 93.902C338.636 91.7431 336.91 89.9963 334.773 89.9963C333.066 89.9963 331.635 91.1347 331.125 92.7048H221.777V95.1188V95.0992Z" fill="#D7E2F4"/>
<path d="M59.5599 443.935L62.5799 438.616L65.6195 433.317H59.5599H53.5002L56.5399 438.616L59.5599 443.935Z" fill="#D7E2F4"/>
<path opacity="0.75" d="M213.953 42.9917L305.886 -50.272C306.475 -49.8991 307.181 -49.6636 307.926 -49.6636C310.063 -49.6636 311.789 -51.4103 311.789 -53.5692C311.789 -55.7281 310.063 -57.4748 307.926 -57.4748C305.788 -57.4748 304.082 -55.7281 304.063 -53.5692C304.063 -53.0589 304.161 -52.5879 304.337 -52.1365L234.857 18.3412V-6.05419L252.487 -23.9533L250.801 -25.6607L232.465 -7.05512V20.7748L212.247 41.2842L213.933 43.0113L213.953 42.9917Z" fill="#D7E2F4"/>
<path opacity="0.75" d="M47.4013 139.081L40.5769 138.924L43.8715 144.989L47.1464 151.053L50.6763 145.146L54.2061 139.238L47.4013 139.081Z" fill="#D7E2F4"/>
<path opacity="0.75" d="M47.4013 122.556L40.5769 122.399L43.8715 128.464L47.1464 134.528L50.6763 128.601L54.2061 122.694L47.4013 122.556Z" fill="#D7E2F4"/>
<path opacity="0.75" d="M7.96479 3.20935L1.964 6.50655L-4.0564 9.82337L1.80712 13.3757L7.67063 16.9281L7.82752 10.0785L7.96479 3.20935Z" fill="#D7E2F4"/>
<path opacity="0.75" d="M60.7561 565.99C63.4035 565.441 65.3841 563.066 65.3841 560.22C65.3841 557.374 63.4035 555 60.7561 554.45V486.818L67.8551 494.021V529.289C66.3254 529.8 65.2076 531.252 65.2076 532.979C65.2076 535.138 66.9137 536.885 69.0513 536.885C71.1888 536.885 72.8949 535.138 72.8949 532.979C72.8949 531.252 71.7771 529.8 70.2475 529.289V493.02L60.7561 483.384V458.635L79.4644 425.761H39.6553L58.3636 458.655V554.47C55.7358 555.039 53.7552 557.394 53.7552 560.24C53.7552 563.086 55.7358 565.441 58.3636 566.01V566.128H60.7561V566.01V565.99ZM43.7931 428.195H75.3266L59.5598 455.907L43.7931 428.195Z" fill="#D7E2F4"/>
<path opacity="0.75" d="M44.754 364.645L43.244 362.761L18.3584 383.27V457.968H20.7509V384.428L44.754 364.645Z" fill="#D7E2F4"/>
<path opacity="0.75" d="M165.358 -5.44578C158.769 -4.83736 153.572 0.81498 153.572 7.66452C153.572 14.9262 159.397 20.8337 166.554 20.8337C173.712 20.8337 179.536 14.9262 179.536 7.66452C179.536 0.81498 174.359 -4.81773 167.751 -5.44578V-71.115C169.241 -71.6449 170.32 -73.0776 170.32 -74.7851C170.32 -76.944 168.594 -78.6907 166.456 -78.6907C164.319 -78.6907 162.593 -76.944 162.593 -74.7851C162.593 -73.0187 163.75 -71.5468 165.339 -71.0561V-5.44578H165.358ZM177.144 7.6449C177.144 13.572 172.398 18.3804 166.554 18.3804C160.71 18.3804 155.965 13.572 155.965 7.6449C155.965 1.71779 160.71 -3.09063 166.554 -3.09063C172.398 -3.09063 177.144 1.73741 177.144 7.6449Z" fill="#D7E2F4"/>
<path opacity="0.75" d="M285.237 80.831H295.257L300.278 72.0384L295.257 63.2263H285.237L280.216 72.0384L285.237 80.831Z" fill="#D7E2F4"/>
<path d="M32.419 352.163L27.3988 343.351L17.3779 343.37L12.3772 352.163L17.3779 360.975H27.3988L32.419 352.163Z" fill="#D7E2F4"/>
<path opacity="0.75" d="M122.686 266.554H76.6797L99.6827 306.964L122.686 266.554ZM99.6827 268.968H118.528L99.6631 302.097L80.7979 268.968H99.6631H99.6827Z" fill="#D7E2F4"/>
<path opacity="0.75" d="M380.68 93.8824L346.205 73.687V114.078L380.68 93.8824ZM375.895 93.8824L348.578 109.878V77.887L375.895 93.8824Z" fill="#D7E2F4"/>
<path d="M52.4608 328.278C47.3032 328.278 43.1262 324.039 43.1262 318.798C43.1262 313.578 47.3032 309.339 52.4608 309.319C57.6183 309.319 61.7953 313.558 61.7953 318.798C61.7953 324.039 57.6183 328.278 52.4608 328.278Z" fill="#D7E2F4"/>
<path d="M83.3866 71.744C74.3854 71.744 67.0903 64.345 67.0903 55.2188C67.0903 46.0926 74.3854 38.6935 83.3866 38.6935C92.3878 38.6935 99.6828 46.0926 99.6828 55.2188C99.6828 64.345 92.3878 71.744 83.3866 71.744Z" fill="#D7E2F4"/>
<path d="M430.981 23.8954L427.059 16.987L430.981 10.0786H438.845L442.787 16.987L438.845 23.8954H430.981Z" fill="#D7E2F4"/>
<path d="M153.729 175.194L145.846 161.357L153.729 147.501H169.476L177.36 161.357L169.476 175.194H153.729Z" fill="#D7E2F4"/>
<path d="M178.419 61.9898L174.555 55.1991L178.419 48.4281H186.126L189.989 55.1991L186.126 61.9898H178.419Z" fill="#D7E2F4"/>
<path d="M99.6827 287.671L96.1332 281.43L92.5837 275.189H99.6827H106.782L103.232 281.43L99.6827 287.671Z" fill="#D7E2F4"/>
<path d="M364.11 93.8824L358.874 96.9637L353.638 100.025V93.8824V87.7394L358.874 90.8207L364.11 93.8824Z" fill="#D7E2F4"/>
</g>
</g>
</g>
</g>
</svg>
