<svg width="53" height="66" viewBox="0 0 53 66" fill="none" xmlns="http://www.w3.org/2000/svg">
<g clip-path="url(#clip0_180_11)">
<path d="M0 37.5V0H6.42424V7.5H14.4545V0H21.6818V7.5H30.5152V0H37.7424V7.5H45.7727V0H53V37.5C52.6868 39.2775 52.1889 41.31 51.3939 43.5C51.3939 43.5 50.6632 45.51 49.7879 47.25C49.282 48.255 46.8809 52.7475 37.7424 59.25C35.0683 61.155 31.3102 63.585 26.5 66C21.6898 63.585 17.9317 61.155 15.2576 59.25C6.11909 52.7475 3.71803 48.255 3.21212 47.25C2.33682 45.51 1.60606 43.5 1.60606 43.5C0.811061 41.31 0.313182 39.2775 0 37.5Z" fill="url(#paint0_linear_180_11)"/>
<path d="M6.42432 36C6.70538 37.335 7.1872 39.1575 8.03038 41.25C8.62462 42.7275 9.5481 45.015 11.2425 47.25C11.9973 48.2475 13.1296 49.53 18.4698 53.25C20.4452 54.63 23.1595 56.4525 26.5001 58.5C29.8407 56.4525 32.5549 54.63 34.5304 53.25C39.8705 49.53 41.0028 48.2475 41.7576 47.25C43.452 45.015 44.3755 42.7275 44.9698 41.25C45.813 39.1575 46.2948 37.335 46.5758 36V15H6.42432V36Z" fill="#021668"/>
<path d="M28.9652 34.0425L31.3181 47.25H21.6817L23.9222 33.9975C21.6577 33.075 20.0757 30.96 20.0757 28.5C20.0757 25.185 22.9505 22.5 26.4999 22.5C30.0493 22.5 32.9242 25.185 32.9242 28.5C32.9242 30.9975 31.286 33.1425 28.9652 34.0425Z" fill="white" stroke="white" stroke-miterlimit="10"/>
</g>
<defs>
<linearGradient id="paint0_linear_180_11" x1="0" y1="33" x2="53" y2="33" gradientUnits="userSpaceOnUse">
<stop offset="0.51" stop-color="#014E86"/>
<stop offset="1" stop-color="#3998F7"/>
</linearGradient>
<clipPath id="clip0_180_11">
<rect width="53" height="66" fill="white"/>
</clipPath>
</defs>
</svg>
